<?xml version="1.0" encoding="UTF-8" standalone="no"?>
<svg
   xmlns:dc="http://purl.org/dc/elements/1.1/"
   xmlns:cc="http://creativecommons.org/ns#"
   xmlns:rdf="http://www.w3.org/1999/02/22-rdf-syntax-ns#"
   xmlns:svg="http://www.w3.org/2000/svg"
   xmlns="http://www.w3.org/2000/svg"
   id="svg31082"
   version="1.1"
   viewBox="0 0 51.805546 32.569687"
   height="32.569687mm"
   width="51.805546mm">
  <defs
     id="defs31076">
    <clipPath
       id="SVG_CP_1-7-6">
      <path
         d="M 0,0 V 413.26299 H 777.74173 V 0 Z"
         id="path6-8" />
    </clipPath>
    <clipPath
       id="clipPath31022">
      <path
         d="M 0,0 V 413.26299 H 777.74173 V 0 Z"
         id="path31020" />
    </clipPath>
    <clipPath
       id="clipPath31026">
      <path
         d="M 0,0 V 413.26299 H 777.74173 V 0 Z"
         id="path31024" />
    </clipPath>
    <clipPath
       id="clipPath31030">
      <path
         d="M 0,0 V 413.26299 H 777.74173 V 0 Z"
         id="path31028" />
    </clipPath>
    <clipPath
       id="clipPath31034">
      <path
         d="M 0,0 V 413.26299 H 777.74173 V 0 Z"
         id="path31032" />
    </clipPath>
    <clipPath
       id="clipPath31038">
      <path
         d="M 0,0 V 413.26299 H 777.74173 V 0 Z"
         id="path31036" />
    </clipPath>
    <clipPath
       id="clipPath31042">
      <path
         d="M 0,0 V 413.26299 H 777.74173 V 0 Z"
         id="path31040" />
    </clipPath>
    <clipPath
       id="clipPath31046">
      <path
         d="M 0,0 V 413.26299 H 777.74173 V 0 Z"
         id="path31044" />
    </clipPath>
    <clipPath
       id="clipPath31050">
      <path
         d="M 0,0 V 413.26299 H 777.74173 V 0 Z"
         id="path31048" />
    </clipPath>
    <clipPath
       id="clipPath31054">
      <path
         d="M 0,0 V 413.26299 H 777.74173 V 0 Z"
         id="path31052" />
    </clipPath>
    <clipPath
       id="clipPath31058">
      <path
         d="M 0,0 V 413.26299 H 777.74173 V 0 Z"
         id="path31056" />
    </clipPath>
    <clipPath
       id="clipPath31062">
      <path
         d="M 0,0 V 413.26299 H 777.74173 V 0 Z"
         id="path31060" />
    </clipPath>
  </defs>
  <metadata
     id="metadata31079">
    <rdf:RDF>
      <cc:Work
         rdf:about="">
        <dc:format>image/svg+xml</dc:format>
        <dc:type
           rdf:resource="http://purl.org/dc/dcmitype/StillImage" />
        <dc:title></dc:title>
      </cc:Work>
    </rdf:RDF>
  </metadata>
  <g
     transform="translate(-104.12104,-211.92349)"
     id="layer1">
    <path
       id="path8-6"
       d="m 382.76953,74.417969 -1.49023,1.96289 -2.04102,0.236329 -0.78516,0.941406 -1.25585,-0.07813 0.15625,1.333984 0.70703,0.548828 -0.78516,1.962891 v 1.884766 l -0.94141,0.863281 -0.86328,2.433593 0.3125,0.392579 -0.23437,1.019531 -0.31445,0.236328 0.78515,0.548828 0.70703,-0.07813 0.62696,0.863281 0.70703,0.314454 0.70507,2.746093 1.72852,2.669922 0.54883,0.392578 -0.15625,0.707031 0.4707,-0.236328 0.4707,1.021485 0.54883,0.07813 0.86328,1.097656 -0.23437,0.785156 0.3125,0.628906 1.09961,0.234376 2.27539,1.492197 -1.33398,2.82617 -1.17774,-0.31446 -0.54883,0.23633 -0.23437,1.01953 0.3125,0.94336 -1.25586,1.72657 0.31445,0.9414 -2.58984,0.15625 -1.17774,0.0801 -0.78515,0.47069 -0.0781,1.01954 0.31445,0.94336 -0.55078,0.54882 -0.86328,0.23438 -1.09765,0.23633 -0.39258,0.15625 0.0781,0.86524 0.23633,-0.0801 0.3125,0.70703 -0.3125,0.78516 2.43164,1.49219 1.02149,0.78515 3.8457,2.98242 0.70703,0.94141 1.49024,0.39258 0.4707,-0.0781 1.17773,0.54882 -0.31445,0.78517 1.33594,1.41406 0.0781,2.35352 -0.6289,1.72655 0.55078,0.1582 1.56836,-0.6289 -0.3125,0.94335 0.3125,0.0781 0.47265,-1.33397 0.3125,0.39257 -0.15625,0.62695 -1.02148,0.6289 1.09961,1.25586 0.86328,0.39259 1.02148,1.09765 h 0.54883 l 1.41211,0.94337 3.68945,1.49023 0.78516,1.80663 -0.78516,-0.23633 -0.23437,0.78516 1.01953,-0.0781 0.4707,0.62696 0.0781,0.39258 -0.78516,0.55078 0.70703,0.78515 -0.15625,-0.94336 1.01953,-0.23437 0.39258,-0.4707 0.23633,-1.6504 1.17578,0.0801 1.25586,-0.70703 1.09961,0.31445 0.70703,-1.02148 h 1.25586 l 0.94141,0.70703 2.51172,-1.17773 0.31445,-1.17774 -0.23633,-0.4707 -2.27539,-1.01953 -0.31445,-0.55078 1.49218,-1.09766 -0.0801,-2.51367 -0.54883,-1.56836 -1.17774,-0.62891 -0.23437,-3.45312 0.62695,-1.33594 4.31836,-1.41211 1.33399,-2.27734 -0.39258,-2.19727 0.23437,-0.39258 0.94336,-0.31445 2.11914,0.23633 1.88282,-0.86328 2.04101,-5.33789 h -1.25586 l -0.23437,-0.23633 0.23437,-2.11914 -2.82617,-1.80469 -1.64844,-0.55078 -1.72656,-1.88281 -0.54883,-0.86328 h 1.09961 l 0.23438,-0.863281 h 1.09961 l 1.17773,-0.865234 v -1.568359 l 3.6875,0.783203 2.27734,-1.960938 -0.54882,-1.021484 0.0781,-0.626953 -1.02148,-0.94336 -0.0781,-1.019531 -0.78515,-0.470703 -2.4336,0.470703 -1.25586,0.707031 -0.39258,1.097657 0.31446,-1.490235 -0.54883,-0.314453 -0.94141,0.314453 -0.39258,-0.707031 h -0.94336 l -0.7832,-1.021484 -1.88476,0.628906 -1.41211,0.07813 -0.55078,-0.548828 -1.09766,-0.314453 -0.62891,-0.941407 -1.33398,-1.414062 0.23633,0.08008 -0.0801,-2.199219 -1.64844,-0.863281 -0.4707,0.07813 -0.86328,1.177734 -0.3125,-0.392578 -0.23633,0.550782 -1.33399,0.07812 -0.86328,-0.628906 -2.11914,0.158203 -1.09961,1.648438 -1.01953,0.470703 -0.94336,-0.392578 -0.62695,-0.707031 0.31445,-0.548829 -0.55078,-0.07812 -0.15625,-1.257813 -1.57031,-0.863281 -0.94141,0.314453 -1.49218,0.07813 -0.23438,-0.234375 0.54883,-0.07813 0.0781,-0.472656 v 0.472656 h 0.31446 l -0.0781,-0.314453 1.09766,-0.470703 -1.25586,0.234375 -0.39063,-1.490235 h -1.88476 l -1.41211,-0.943359 -1.64844,-3.53125 0.15625,-2.121094 -0.94141,-1.255859 z m 12.48047,7.615234 1.01953,1.255859 v -0.785156 z"
       clip-path="url(#SVG_CP_1-7-6)"
       style="display:inline;opacity:1;vector-effect:none;fill:#39d888;fill-opacity:1;fill-rule:evenodd;stroke:#ffffff;stroke-width:0.15698338;stroke-linecap:square;stroke-linejoin:miter;stroke-miterlimit:10;stroke-dasharray:none;stroke-dashoffset:0;stroke-opacity:1"
       transform="matrix(0.26458333,0,0,0.26458333,37.598482,192.25719)" />
    <path
       id="path12-2"
       d="m 377.11914,76.851562 -0.62891,0.158204 0.23633,0.705078 -1.96289,1.255859 -1.09961,1.728516 -1.09765,0.626953 -0.55079,-0.470703 -1.64843,-0.07813 -0.94141,-0.392578 -0.39258,0.626953 -3.375,-0.07813 -0.62695,-0.15625 -0.4707,0.626953 -3.45508,-0.392578 -0.39258,-0.785157 -0.94141,0.08008 -1.01953,-0.707032 -0.31445,0.470703 -1.02148,-0.15625 -1.09766,0.3125 -0.0781,0.472657 -0.31445,-0.314453 -0.86328,0.15625 0.23438,0.470703 -0.54883,-0.3125 0.0781,-1.09961 -0.4707,-0.236328 -1.25586,-0.15625 -0.0781,0.470703 -1.4121,-0.470703 -0.86329,0.392578 -2.04101,0.707032 -2.27735,-0.158203 -0.15625,1.255859 -0.78515,0.158203 -0.54883,0.548828 -0.0801,0.863281 h 0.31446 l -0.39258,0.628907 0.55078,-0.236328 -0.23633,0.470703 0.54883,0.236328 -0.4707,0.548828 1.02148,-0.07813 0.39258,1.412109 -0.78516,0.158203 v -0.236328 l -0.6289,0.550782 -0.62696,-0.236329 -0.55078,-0.314453 -0.0781,-0.707031 -1.41211,0.865234 -0.70703,-0.236328 -0.54883,2.277344 -2.04102,1.412109 -0.31445,0.470704 0.1582,0.470703 h -0.94336 l -0.0781,0.943359 -1.80469,1.255859 -0.86328,-0.08008 0.15625,0.392578 -0.39258,0.392579 1.02148,1.570312 2.03907,2.119141 4.47461,1.728515 1.17773,1.019532 1.01953,1.492178 1.64844,1.17774 1.09961,0.94141 0.94141,0.15625 1.80664,2.43359 2.51171,0.23633 0.86329,-1.17774 -0.23633,-1.33398 0.31445,-0.70703 0.78516,0.62695 -0.0781,1.33594 0.39063,-0.0801 v 0.55078 l 0.86523,0.54883 0.54883,0.39258 0.39258,0.6289 0.0781,0.15625 0.47071,0.62891 0.15625,-0.0801 1.25586,0.15821 0.70703,1.09765 -0.0781,0.39258 0.31445,0.55078 0.39258,0.0781 -0.1582,1.25586 -0.3125,0.4707 1.17578,1.02148 0.0801,-0.31445 h 0.54883 l 0.0781,-0.39258 -0.86328,-0.0781 v -0.47071 l 0.62695,-1.09961 0.31446,0.0781 2.35547,0.23633 1.01953,0.70507 4.08203,3.0625 2.11914,0.78516 1.41211,1.64844 1.33594,0.86328 0.70507,-0.39258 0.62891,0.54883 0.15625,-0.62695 0.31445,0.15625 0.47071,-0.39258 1.80468,1.72656 1.41407,-1.56836 -1.02149,-0.78515 -2.43164,-1.49219 0.3125,-0.78516 -0.3125,-0.70703 -0.23633,0.0801 -0.0781,-0.86524 0.39258,-0.15625 1.09765,-0.23632 0.86328,-0.23438 0.55078,-0.54883 -0.31445,-0.94336 0.0781,-1.01953 0.78515,-0.4707 1.17774,-0.0801 2.58984,-0.15625 -0.31445,-0.9414 1.25586,-1.72657 -0.3125,-0.94336 0.23437,-1.01953 0.54883,-0.23633 1.17774,0.31446 1.33398,-2.82617 -2.27539,-1.492188 -1.09961,-0.234376 -0.3125,-0.628906 0.23437,-0.785156 -0.86328,-1.097656 -0.54883,-0.07813 -0.4707,-1.021485 -0.4707,0.236328 0.15625,-0.707031 -0.54883,-0.392578 -1.72852,-2.669922 -0.70507,-2.746093 -0.70703,-0.314454 -0.62696,-0.863281 -0.70703,0.07813 -0.78515,-0.548828 0.31445,-0.236328 0.23437,-1.019531 -0.3125,-0.392579 0.86328,-2.433593 0.94141,-0.863281 v -1.884766 l 0.78516,-1.962891 -0.70703,-0.548828 -0.15625,-1.333984 z"
       clip-path="url(#SVG_CP_1-7-6)"
       style="display:inline;opacity:1;vector-effect:none;fill:#39d888;fill-opacity:1;fill-rule:evenodd;stroke:#ffffff;stroke-width:0.15698338;stroke-linecap:square;stroke-linejoin:miter;stroke-miterlimit:10;stroke-dasharray:none;stroke-dashoffset:0;stroke-opacity:1"
       transform="matrix(0.26458333,0,0,0.26458333,37.598482,192.25719)" />
    <path
       id="path104-5"
       d="m 335.125,93.335938 -0.62695,0.392578 h -0.94336 L 332.37891,94.75 h -1.96289 l -1.09961,1.333984 -7.61329,-1.412109 7.53516,1.490234 1.02149,1.806641 2.43164,2.11914 -0.3125,1.09766 -0.94336,-0.47071 2.43359,2.04102 -0.31445,1.80664 -2.51172,-0.23633 2.19922,0.23633 1.09765,0.78516 -0.78515,2.11914 -0.23438,0.39258 -0.39258,-0.15821 0.23438,-0.39258 -0.3125,0.39258 0.39258,0.31445 -0.70703,-0.31445 0.4707,1.49219 -0.78516,-1.01953 -0.9414,-1.41406 0.70703,1.25585 -0.94336,-0.0781 -0.62695,-0.86328 0.4707,0.0781 -1.25586,-1.01953 1.17773,0.47071 -2.58984,-1.49219 -0.1582,-0.15625 0.23633,-0.1582 1.57031,0.55078 0.23437,-0.55078 -1.49023,-0.23438 0.4707,-0.4707 1.09766,0.15625 0.0801,-0.31446 H 329.709 l 0.55079,-0.9414 -2.74805,2.04101 -4.31641,-2.04101 -1.57031,-1.41407 -0.62891,0.15821 0.31446,-0.39258 -0.47071,-0.0781 -2.11914,-2.433589 -0.86328,-0.314453 -0.78515,0.236328 -0.23633,-0.08008 0.47265,-0.392578 -0.47265,0.314453 -0.23438,-0.234375 3.92383,-3.455078 -4.55273,3.689453 -0.23438,-0.234375 -0.78516,1.804694 v 1.57031 l -0.78515,0.4707 h -0.94141 l -0.55078,-0.86328 -0.86328,-0.39258 -0.23438,0.54883 -2.51171,0.39258 -1.64844,-0.54883 0.4707,1.09961 -0.70703,2.11914 0.94336,5.49414 -0.39258,3.29688 v 0.1582 l 1.80469,2.03906 0.86328,-0.15625 1.09961,0.78516 3.2168,1.02148 0.6289,0.54883 1.25586,-0.62891 2.11914,0.62891 1.09961,0.86328 2.27539,0.94141 2.27539,2.11914 2.74805,2.27734 3.29688,2.9043 -0.15625,0.54883 0.39062,1.57031 1.80664,2.27734 0.39258,0.62696 0.3125,0.31445 h 0.70703 l 0.0781,0.4707 -0.94141,1.80664 1.25586,0.70508 0.78516,1.09961 -0.15626,0.70703 0.62696,1.01953 2.04101,0.47071 1.17774,1.49218 1.01953,0.47071 4.39648,-1.49024 0.3125,-1.25781 0.78516,1.41406 2.43359,2.51172 1.02149,0.23633 -0.55078,-0.70703 1.49218,-0.54883 1.64844,1.41211 -1.25586,1.72656 0.70703,0.62891 1.49024,-1.09961 1.72656,1.17773 1.25586,0.23438 0.23633,0.6289 0.39258,0.0781 0.39257,-1.25586 -0.94335,-0.94141 0.86328,0.15625 0.86523,-0.31445 1.72656,1.09961 0.62696,-0.23438 -0.0781,-0.6289 1.80469,1.64844 0.70703,-0.0781 0.86328,-1.09961 1.17774,0.4707 0.39257,1.09961 -1.17773,2.04102 3.13867,1.64844 -1.25586,-1.88477 -0.39062,-1.72656 0.86328,-1.64844 1.64844,-1.57031 0.86328,-3.53125 0.86328,-1.02148 2.04101,-0.86329 0.54883,0.23633 -0.1582,-0.55078 1.09961,-0.3125 1.41211,-2.12109 1.02148,0.6289 1.25586,-1.57031 1.80469,0.23633 0.31445,-0.23633 -0.54883,-1.17773 0.15625,-1.09766 -0.39257,-0.23633 0.0781,-0.78515 v -0.39258 l 0.31445,-0.31446 0.94141,0.62891 0.23633,-0.4707 1.41211,-0.39258 0.1582,-1.02148 1.80469,-1.72657 0.0781,-1.57031 -0.70703,-0.4707 0.78516,0.0781 0.31445,-0.54883 -0.62695,-0.4707 0.9414,-0.1582 v 0.31445 l 1.09766,0.70703 1.17774,-2.43359 -1.49024,-0.39258 -0.70703,-0.94141 -3.8457,-2.98242 -1.41407,1.56836 -1.80468,-1.72656 -0.47071,0.39258 -0.31445,-0.15625 -0.15625,0.62695 -0.62891,-0.54883 -0.70507,0.39258 -1.33594,-0.86328 -1.41211,-1.64844 -2.11914,-0.78516 -4.08203,-3.0625 -1.01953,-0.70507 -2.35547,-0.23633 -0.31446,-0.0781 -0.62695,1.09961 v 0.47071 l 0.86328,0.0781 -0.0781,0.39258 h -0.54883 l -0.0801,0.31445 -1.17578,-1.02148 c 0.0721,0.67104 0.50078,-1.38872 0.57685,-1.75262 l -0.49871,-0.052 -0.31445,-0.55078 0.0781,-0.39258 -0.70703,-1.09765 -1.25586,-0.15821 -0.15625,0.0801 -0.47071,-0.62891 -0.0781,-0.15625 -0.39258,-0.6289 -0.54883,-0.39258 -0.86523,-0.54883 V 104.875 l -0.39063,0.0801 0.0781,-1.33594 -0.78516,-0.62695 -0.31445,0.70703 0.23633,1.33398 -0.86329,1.17774 -2.51171,-0.23633 -1.80664,-2.43359 -0.94141,-0.15625 -1.09961,-0.94141 -1.64844,-1.17774 -1.01953,-1.492182 -1.17773,-1.019532 -4.47461,-1.728515 -2.03907,-2.119141 z"
       clip-path="url(#SVG_CP_1-7-6)"
       style="display:inline;opacity:1;vector-effect:none;fill:#39d888;fill-opacity:1;fill-rule:evenodd;stroke:#ffffff;stroke-width:0.15698338;stroke-linecap:square;stroke-linejoin:miter;stroke-miterlimit:10;stroke-dasharray:none;stroke-dashoffset:0;stroke-opacity:1"
       transform="matrix(0.26458333,0,0,0.26458333,37.598482,192.25719)" />
    <path
       id="path108-7"
       d="m 428.76562,94.828125 -0.78515,0.07813 -1.33399,0.550781 -2.19726,-0.236328 -0.31445,-0.314453 -1.80469,1.099609 -1.17774,-0.470703 -2.27734,1.960938 -3.6875,-0.783203 v 1.568359 l -1.17773,0.865234 h -1.09961 l -0.23438,0.863291 h -1.09961 l 0.54883,0.86328 1.72656,1.88281 1.64844,0.55078 2.82617,1.80469 -0.23437,2.11914 0.23437,0.23633 h 1.25586 l -2.04101,5.33789 -1.88282,0.86328 -2.11914,-0.23633 -0.94336,0.31445 -0.23437,0.39258 0.39258,2.19727 -1.33399,2.27734 -4.31836,1.41211 -0.62695,1.33593 0.23437,3.45312 1.17774,0.62892 0.54883,1.56836 0.0801,2.51366 -1.49218,1.09766 0.31445,0.55078 2.27539,1.01953 0.23633,0.4707 -0.31445,1.17774 1.96289,-0.86328 1.96093,0.86328 2.5918,2.43359 2.43164,-1.64844 2.04102,-1.96288 1.49218,0.31446 1.17774,-0.23634 0.94141,0.23634 0.54882,0.78514 1.57032,0.54884 0.6289,1.57031 2.19727,1.25586 0.15625,-0.31445 0.78515,0.70703 0.94141,0.0781 0.23633,-2.19727 0.70703,-1.41406 0.7832,0.55078 1.25586,-0.15821 1.88477,0.62891 1.88281,-0.4707 0.62891,-0.70703 2.82617,-2.74805 0.39258,-1.09766 1.17578,-0.70703 -0.47071,-2.04101 3.0625,-2.58985 0.78516,-1.64843 -0.6289,-1.49219 -0.70704,-0.4707 -0.78515,-1.64844 -1.96094,-1.57032 0.54883,-2.98242 0.9414,-0.70703 0.62891,-1.64844 1.57031,-1.01953 0.86328,-1.88476 0.47071,-0.31446 -1.02149,-0.39257 v -0.54883 l -0.39258,0.78515 -0.39257,-0.6289 0.1582,-0.54883 0.4707,0.0781 -0.4707,0.31446 0.94141,-0.15625 -0.86328,-0.94336 -2.11915,-1.09766 -1.09961,-0.23633 -0.4707,0.54883 -2.82617,-1.33398 -0.70508,0.54883 -0.39258,-0.78516 -0.4707,-0.0781 -1.49219,-3.29688 -0.62695,0.0781 -0.55078,-1.33398 -0.70508,0.1582 -1.09961,-2.041017 -1.57031,-0.236328 -0.23438,0.15625 -0.23632,0.158203 -0.006,0.04297 -0.15039,0.113281 -0.39258,-0.15625 0.15625,-0.392578 -0.31446,0.234375 0.62891,-0.863281 -0.78516,-0.07813 z"
       clip-path="url(#SVG_CP_1-7-6)"
       style="display:inline;opacity:1;vector-effect:none;fill:#39d888;fill-opacity:1;fill-rule:evenodd;stroke:#ffffff;stroke-width:0.15698338;stroke-linecap:square;stroke-linejoin:miter;stroke-miterlimit:10;stroke-dasharray:none;stroke-dashoffset:0;stroke-opacity:1"
       transform="matrix(0.26458333,0,0,0.26458333,37.598482,192.25719)" />
    <path
       id="path320-9"
       d="m 293.83789,112.72656 -4.39453,1.49024 -1.09961,1.72656 -1.25586,0.62891 -0.70508,-0.47071 -0.78515,0.23438 -2.04102,1.25586 -2.19726,-0.0781 -0.62891,-0.62695 0.31445,-0.94336 -0.39258,-1.09766 -3.45312,0.86328 -0.39258,0.54883 -1.57031,0.70703 -1.64844,-2.43359 -0.31445,0.78516 -1.64844,1.09961 0.62891,3.13867 -0.15821,1.09961 -3.45312,1.49218 -1.88281,-0.6289 -1.80665,1.02148 -0.9414,0.0781 -1.01953,1.57031 -0.62891,2.98242 -1.41211,1.80469 -1.41406,-1.25586 -1.33399,0.1582 0.55079,0.70508 -1.49219,1.57031 -0.86328,0.31446 -1.33399,-0.54883 -1.49218,1.88281 -1.41211,-0.78516 -0.62891,0.39258 2.19922,3.61133 1.09765,3.21875 -0.15624,2.27539 -0.23633,0.78516 h -0.31446 l 0.23633,6.9082 0.78516,2.82617 h 0.39258 l 0.23437,1.17774 0.62891,0.78515 0.86328,4.94532 1.41211,-0.23633 0.6289,-0.78516 3.45313,-0.62695 3.21875,-2.27735 0.15625,-0.62695 2.11914,-0.1582 1.72656,-0.62695 1.64844,-3.21875 0.62891,-0.15625 0.9414,0.4707 2.58985,-1.02149 0.0781,-0.39257 1.96289,-0.3125 0.70703,-1.17774 0.94141,-0.55078 0.62891,-0.86328 3.76757,-1.96289 -0.1582,-1.09766 1.96289,0.0781 1.01953,-0.54883 1.17774,0.23437 0.55078,-0.86328 2.98242,3.375 0.78516,1.72852 h 0.39062 l 0.23633,0.70508 h 0.39258 l 0.86328,1.02148 -0.15625,0.54883 1.17578,-1.33399 0.78516,0.47071 0.23632,-0.15625 0.31446,-0.94336 0.62695,-0.39258 0.54883,1.25586 1.09961,0.94336 2.11914,0.4707 h 0.39258 l 1.25586,-1.57031 2.04101,-0.86328 1.09961,0.39258 0.94141,-0.23633 1.72656,1.02148 1.01953,1.49024 0.31445,1.72851 0.54883,-0.39257 0.62891,1.25585 0.4707,0.47071 1.41211,0.15625 1.57031,2.43359 1.02149,0.78516 0.4707,-0.0781 2.9043,-2.04101 1.01953,0.0781 1.17773,0.86328 1.33399,0.39258 1.64844,-2.43359 7.3789,-1.41211 -0.1582,-2.04102 1.72851,-3.375 -0.47265,-2.59179 0.70703,-0.47071 -0.70703,-1.41211 0.86328,-0.86328 -2.27539,-0.55078 -2.11914,-1.25586 1.25586,-1.80469 h 1.17773 l 1.64844,1.88282 -0.23633,0.78515 0.86328,0.23633 0.55078,1.41211 1.01954,0.94336 4.55273,-1.02149 0.23437,-0.31445 -0.0781,-0.0781 -1.01953,-0.47071 -1.17774,-1.49218 -2.04101,-0.47071 -0.62696,-1.01953 0.15626,-0.70703 -0.78516,-1.09961 -1.25586,-0.70508 0.94141,-1.80664 -0.0781,-0.4707 h -0.70703 l -0.3125,-0.31445 -0.39258,-0.62696 -1.80664,-2.27734 -0.39062,-1.57031 0.15625,-0.54883 -3.29688,-2.9043 -2.74805,-2.27734 -2.27539,-2.11914 -2.27539,-0.94141 -1.09961,-0.86328 -2.11914,-0.62891 -1.25586,0.62891 -0.6289,-0.54883 -3.2168,-1.02148 -1.09961,-0.78516 -0.86328,0.15625 -1.80469,-2.03906 v -0.1582 l -1.09961,1.41406 -4.39453,0.39258 -0.70703,0.39062 -1.64844,-0.0781 -1.09961,1.41406 -1.17773,0.54883 -0.86328,1.88476 -1.64844,-0.86328 0.0801,-1.25586 -1.33594,-1.57031 z m -7.92773,10.83203 3.29687,1.88477 -0.39258,3.2168 -1.09765,1.88476 -2.19727,1.49219 -0.23633,1.17773 0.70703,1.80469 -0.94335,1.33399 1.17773,2.90429 -0.86328,1.09961 -2.66797,0.4707 -0.23633,0.62891 -1.17773,-1.49219 -1.25586,-0.86328 0.6289,-1.02148 0.39258,-2.11914 -0.70703,-0.62696 -0.0781,-2.19921 0.78515,-2.9043 -0.70703,-0.62695 -0.62695,-1.41407 -1.09961,-0.9414 0.4707,-0.94141 -0.31445,-0.62891 3.0625,-0.78515 h 1.72656 l 1.57031,-1.17774 z"
       clip-path="url(#SVG_CP_1-7-6)"
       style="display:inline;opacity:1;vector-effect:none;fill:#39d888;fill-opacity:1;fill-rule:evenodd;stroke:#ffffff;stroke-width:0.15698338;stroke-linecap:square;stroke-linejoin:miter;stroke-miterlimit:10;stroke-dasharray:none;stroke-dashoffset:0;stroke-opacity:1"
       transform="matrix(0.26458333,0,0,0.26458333,37.598482,192.25719)" />
    <path
       clip-path="url(#SVG_CP_1-7-6)"
       d="m 474.94905,187.93291 2.39994,0.48003 -0.71998,3.12022 -0.71998,-0.48004 -1.19997,-0.72005 z"
       id="path376-9"
       style="display:inline;fill:#39d888;fill-opacity:1;fill-rule:evenodd;stroke:#b3b3b3"
       transform="matrix(0.08653344,0,0,0.08653344,96.361786,210.32705)" />
    <path
       clip-path="url(#SVG_CP_1-7-6)"
       stroke-miterlimit="10"
       d="m 476.14902,188.17293 1.19997,0.24001 -0.71998,3.12022 -0.71998,-0.48004 -1.19997,-0.72005 0.23999,-2.40016 1.19997,0.24002"
       id="path378-7"
       style="display:inline;fill:#39d888;fill-opacity:1;stroke:#b3b3b3;stroke-width:0.47999001;stroke-linecap:square;stroke-miterlimit:10"
       transform="matrix(0.08653344,0,0,0.08653344,96.361786,210.32705)" />
    <path
       id="path384-9"
       d="m 377.90234,131.01562 0.15821,0.55079 0.39257,1.01953 h 0.0781 l -0.23633,-0.86328 z m -1.88281,2.04102 -1.25586,1.57031 -1.02148,-0.6289 -1.41211,2.12109 -1.09961,0.3125 0.1582,0.55078 -0.54883,-0.23633 -2.04101,0.86329 -0.86328,1.02148 -0.86328,3.53125 -1.64844,1.57031 -0.86328,1.64844 0.39062,1.72656 1.25586,1.88477 -3.13867,-1.64844 1.17773,-2.04102 -0.39257,-1.09961 -1.17774,-0.4707 -0.86328,1.09961 -0.70703,0.0781 -1.80469,-1.64844 0.0781,0.6289 -0.62696,0.23438 -1.72656,-1.09961 -0.86523,0.31445 -0.86328,-0.15625 0.94335,0.94141 -0.39257,1.25586 -0.39258,-0.0781 -0.23633,-0.6289 -1.25586,-0.23438 -1.72656,-1.17773 -1.49024,1.09961 -0.70703,-0.62891 1.25586,-1.72656 -1.64844,-1.41211 -1.49218,0.54883 0.55078,0.70703 -1.02149,-0.23633 -2.43359,-2.51172 -0.78516,-1.41406 -0.3125,1.25781 -4.39648,1.49024 0.0781,0.0781 h 0.23633 l 1.33399,4.00391 2.19726,2.58984 2.82617,1.41406 -1.41211,2.82618 0.86329,0.70507 1.80468,2.82618 0.23633,0.23632 0.23438,0.62696 -0.3125,1.02148 0.62695,0.70703 -1.01953,0.86328 -0.31445,1.01954 -1.09961,1.02148 -1.41211,2.51172 h -0.31446 l -1.33398,2.82617 -2.04102,1.25586 0.54883,1.01953 2.27735,0.62891 3.76757,3.61133 -0.31445,0.62695 2.35547,0.86328 2.11914,3.29687 2.35352,1.33594 2.35546,2.27539 0.70704,0.15821 0.39257,-0.78516 0.86329,-0.39258 3.76757,-0.39258 2.98243,1.88282 2.11914,0.70703 2.82617,1.72656 6.12109,0.1582 1.64844,0.0781 1.17773,0.78515 0.15625,0.54883 0.78516,0.54883 2.27734,-0.39258 1.25586,0.47266 0.39258,-0.23633 0.62695,-1.57031 1.09961,-0.15625 0.94141,1.25586 0.23633,1.01953 0.78515,0.31445 2.7461,-1.72656 1.33398,0.15625 0.78516,-0.31445 0.31445,0.86523 0.70703,0.23438 1.25586,1.33398 0.78321,-0.4707 0.1582,0.4707 1.96289,-1.17578 -0.39258,-0.94336 -0.39258,-0.94141 1.01953,-0.4707 0.39258,-1.25586 0.0781,-1.17773 -0.70508,-0.31446 v -0.39257 l 1.17578,-1.33399 0.0801,-3.5332 1.25586,-0.70508 -1.33594,-2.19922 0.0801,-3.29687 -0.86524,-2.2754 -0.9414,-0.78515 -0.78516,-2.19922 0.70703,-2.04102 -0.15625,-1.25585 -0.4707,-0.94141 -2.04102,-1.57031 0.0781,-3.84571 -0.62891,-2.11914 -2.82422,-3.29687 -1.88476,-0.86328 -2.9043,-2.5918 0.1582,-0.23438 -1.17773,-3.61132 -0.94336,-0.86328 -0.23437,-3.53321 -0.47071,-1.01953 -3.76758,-1.25586 -0.86328,-0.86523 0.15625,-0.39063 -0.39257,-0.55078 h -0.47071 l -0.31445,0.23633 z"
       clip-path="url(#SVG_CP_1-7-6)"
       style="display:inline;opacity:1;vector-effect:none;fill:#39d888;fill-opacity:1;fill-rule:evenodd;stroke:#ffffff;stroke-width:0.15698338;stroke-linecap:square;stroke-linejoin:miter;stroke-miterlimit:10;stroke-dasharray:none;stroke-dashoffset:0;stroke-opacity:1"
       transform="matrix(0.26458333,0,0,0.26458333,37.598482,192.25719)" />
    <path
       clip-path="url(#SVG_CP_1-7-6)"
       stroke-miterlimit="10"
       d="m 477.34899,195.1334 -0.47998,-1.68011 -0.47999,-1.68012 1.19997,2.16015 0.71998,2.64018 h -0.23999 l -0.71999,-1.4401"
       id="path386-7"
       style="display:inline;fill:#39d888;fill-opacity:1;stroke:#b3b3b3;stroke-width:0.47999001;stroke-linecap:square;stroke-miterlimit:10"
       transform="matrix(0.08653344,0,0,0.08653344,96.361786,210.32705)" />
    <path
       id="path392-8"
       d="m 385.83008,121.43945 -0.4707,0.0781 -1.17774,2.43359 -1.09766,-0.70703 v -0.31445 l -0.9414,0.1582 0.62695,0.4707 -0.31445,0.54883 -0.78516,-0.0781 0.70703,0.4707 -0.0781,1.57031 -1.80469,1.72657 -0.1582,1.02148 -1.41211,0.39258 -0.23633,0.4707 -0.94141,-0.62891 -0.31445,0.31446 v 0.39258 l 0.78516,0.1582 -0.23438,1.01953 -0.23633,-0.15625 -0.15625,1.09766 0.54883,1.17773 h 0.47071 l 0.39257,0.55078 -0.15625,0.39063 0.86328,0.86523 3.76758,1.25586 0.47071,1.01953 0.23437,3.53321 0.94336,0.86328 1.17773,3.61132 -0.1582,0.23438 2.9043,2.5918 1.88476,0.86328 2.82422,3.29687 0.62891,2.11914 -0.0781,3.84571 2.04102,1.57031 0.4707,0.94141 0.15625,1.25585 -0.70703,2.04102 0.78516,2.19922 0.9414,0.78515 0.86524,2.2754 -0.0801,3.29687 1.33594,2.19922 0.39062,0.94141 -0.0781,-2.27735 5.41601,-3.29687 1.57032,0.31445 2.51171,-0.0781 0.94141,0.62696 2.66992,0.55078 6.1211,-1.02148 2.27734,-0.70508 0.23438,-0.0801 0.39257,-0.94141 1.09961,-0.0781 2.4336,-0.86328 2.27539,1.33398 2.19726,-1.33398 0.23633,-0.31446 -0.78516,-0.15625 0.70704,-5.57422 0.9414,-1.25586 -1.41211,-4.23828 0.54883,-2.98437 -0.86328,-1.09766 -0.86328,-1.49219 0.31445,-1.0996 0.94141,0.0801 0.23437,-0.55078 2.74805,-0.4707 0.39258,-0.62695 -0.94141,-2.1211 -0.47265,-0.23437 0.6289,-1.57031 0.39258,-3.76758 -0.86328,-0.0781 -0.86328,-1.25586 -0.70703,-0.78515 0.0781,-0.55078 -0.94141,-0.0781 -0.78515,-0.70703 -0.15625,0.31445 -2.19727,-1.25586 -0.6289,-1.57031 -1.57032,-0.54883 -0.54882,-0.78515 -0.94141,-0.23633 -1.17774,0.23633 -1.49218,-0.31446 -2.04102,1.96289 -2.43164,1.64844 -2.5918,-2.43359 -1.96093,-0.86328 -1.96289,0.86328 -2.51172,1.17773 -0.94141,-0.70703 h -1.25586 l -0.70703,1.02148 -1.09961,-0.31445 -1.25586,0.70703 -1.17578,-0.0801 -0.23633,1.6504 -0.39258,0.4707 -1.01953,0.23437 0.15625,0.94336 -0.70703,-0.78515 0.78516,-0.55078 -0.0781,-0.39258 -0.4707,-0.62696 -1.01953,0.0781 0.23437,-0.78516 0.78516,0.23633 -0.78516,-1.80664 -3.68945,-1.49023 -1.41211,-0.94336 h -0.54883 l -1.02148,-1.09766 -0.86328,-0.39258 -1.09961,-1.25586 1.02148,-0.6289 0.15625,-0.62696 -0.3125,-0.39257 -0.47265,1.33398 -0.3125,-0.0781 0.3125,-0.94335 -1.56836,0.6289 -0.55078,-0.1582 0.6289,-1.72656 -0.0781,-2.35352 -1.33594,-1.41406 0.31445,-0.78516 z m 14.67773,54.16407 -0.23437,-0.47071 -0.15625,-0.4707 -1.25586,0.70508 -0.0801,3.5332 -1.17578,1.33399 v 0.39257 l 0.70508,0.31446 -0.0781,1.17773 -0.39258,1.25586 -1.01953,0.4707 0.78516,1.88477 0.54883,0.0781 1.33398,-1.41406 1.88477,1.33594 0.70507,-1.02149 -0.0781,0.78516 1.96289,1.49219 1.80469,0.39258 0.54883,-2.27735 -0.62696,-1.33398 0.0781,-2.82617 -0.70703,-0.39258 -2.11914,-3.0625 -0.78516,-0.39063 -0.86328,-1.25781 z m -22.60547,-44.5879 0.39258,0.70704 0.23633,0.86328 h -0.0781 l -0.39257,-1.01953 z"
       clip-path="url(#SVG_CP_1-7-6)"
       style="display:inline;opacity:1;vector-effect:none;fill:#39d888;fill-opacity:1;fill-rule:evenodd;stroke:#ffffff;stroke-width:0.15698338;stroke-linecap:square;stroke-linejoin:miter;stroke-miterlimit:10;stroke-dasharray:none;stroke-dashoffset:0;stroke-opacity:1"
       transform="matrix(0.26458333,0,0,0.26458333,37.598482,192.25719)" />
    <path
       clip-path="url(#SVG_CP_1-7-6)"
       d="m 544.30745,325.22234 1.19997,2.8802 2.39995,0.72005 2.63994,3.84026 2.39994,1.20008 6.47985,9.36065 2.15995,1.20008 -0.23999,8.64059 1.91995,4.08028 -1.67996,6.96048 -5.51987,-1.20008 -5.99986,-4.56032 0.23999,-2.40016 -2.15995,3.12021 -5.75987,-4.08028 -4.0799,4.3203 -1.67996,-0.24002 -2.39995,-5.76039 3.11993,-1.4401 1.19997,-3.84027 0.24,-3.60024 -2.15995,-0.96007 v -1.20008 l 3.59991,-4.08028 0.24,-10.80074 z"
       id="path516-3"
       style="display:inline;fill:#39d888;fill-opacity:1;fill-rule:evenodd;stroke:#b3b3b3"
       transform="matrix(0.08653344,0,0,0.08653344,96.361786,210.32705)" />
    <path
       clip-path="url(#SVG_CP_1-7-6)"
       d="m 338.3922,350.42407 -1.43997,4.3203 -6.95984,6.96047 0.24,2.40017 1.91995,1.4401 5.75987,0.24001 7.19983,3.84027 5.75987,-0.72005 6.47985,1.68011 0.95998,3.12022 -4.3199,6.24043 3.35992,6.24043 8.6398,-3.60025 2.63994,-2.16015 0.24,-1.4401 5.99986,2.16015 -1.43997,3.36023 -11.03975,4.56031 -10.55975,0.24002 -2.87994,-0.96007 -1.67996,1.92014 -0.47999,3.36023 -2.87993,0.96006 -12.9597,-1.4401 -3.11993,1.20009 -2.39994,-0.24002 -6.95984,-9.60066 -3.11993,-1.92013 -1.43997,-1.68012 0.47999,-3.60024 -6.71984,-1.4401 -3.11993,-2.40017 -1.19997,2.8802 -5.75987,2.64018 -0.71998,-6.48044 14.39966,-10.56073 1.91996,-10.08069 7.19983,-8.88061 1.19998,2.16015 1.91995,-1.20009 0.95998,1.4401 8.15981,-1.92013 -0.23999,7.44051 z"
       id="path520-1"
       style="display:inline;opacity:1;vector-effect:none;fill:#39d888;fill-opacity:1;fill-rule:evenodd;stroke:#ffffff;stroke-width:0.47999001;stroke-linecap:square;stroke-linejoin:miter;stroke-miterlimit:10;stroke-dasharray:none;stroke-dashoffset:0;stroke-opacity:1"
       transform="matrix(0.08653344,0,0,0.08653344,96.361786,210.32705)" />
  </g>
</svg>
